<?xml version="1.0" encoding="iso-8859-1"?>
<!-- Uploaded to: SVG Repo, www.svgrepo.com, Generator: SVG Repo Mixer Tools -->
<svg height="800px" width="800px" version="1.1" id="Layer_1" xmlns="http://www.w3.org/2000/svg" xmlns:xlink="http://www.w3.org/1999/xlink" 
	 viewBox="0 0 511.987 511.987" xml:space="preserve">
<path style="fill:#F5BA45;" d="M106.662,165.335c-17.671,0-31.999,14.328-31.999,31.999v277.312c0,17.688,14.328,32,31.999,32
	s31.999-14.312,31.999-32V197.335C138.661,179.663,124.333,165.335,106.662,165.335z"/>
<path style="fill:#FECD57;" d="M170.661,165.335c-17.671,0-32,14.328-32,31.999v277.312c0,17.688,14.328,32,32,32
	s31.999-14.312,31.999-32V197.335C202.659,179.663,188.332,165.335,170.661,165.335z"/>
<path style="fill:#F5BA45;" d="M234.659,165.335c-17.671,0-32,14.328-32,31.999v277.312c0,17.688,14.328,32,32,32s32-14.312,32-32
	V197.335C266.658,179.663,252.33,165.335,234.659,165.335z"/>
<path style="fill:#FECD57;" d="M298.649,165.335c-17.656,0-31.991,14.328-31.991,31.999v277.312c0,17.688,14.335,32,31.991,32
	c17.687,0,31.999-14.312,31.999-32V197.335C330.648,179.663,316.336,165.335,298.649,165.335z"/>
<path style="fill:#F5BA45;" d="M362.647,165.335c-17.655,0-31.999,14.328-31.999,31.999v277.312c0,17.688,14.344,32,31.999,32
	c17.687,0,31.998-14.312,31.998-32V197.335C394.645,179.663,380.334,165.335,362.647,165.335z"/>
<path style="fill:#FECD57;" d="M426.645,165.335c-17.656,0-32,14.328-32,31.999v277.312c0,17.688,14.344,32,32,32
	c17.688,0,31.999-14.312,31.999-32V197.335C458.644,179.663,444.333,165.335,426.645,165.335z"/>
</svg>